<svg xmlns="http://www.w3.org/2000/svg" viewBox="0 0 174.48 46.3"><defs><style>.a{fill:#fff;stroke:#1d1d1b;stroke-miterlimit:10;}.b{fill:#1d1d1b;}</style></defs><title>iconAtivo 2meganf</title><rect class="a" x="159.52" y="0.5" width="14.47" height="12.75"/><rect class="a" x="0.5" y="0.5" width="13.23" height="12.75"/><rect class="a" x="159.52" y="27.62" width="14.47" height="18.18"/><rect class="a" x="0.5" y="27.62" width="13.23" height="18.18"/><path class="b" d="M44.87,22.7H38v7.22h7.93v1.29H36.58V13.44h9.27v1.32H38v6.65h6.89Z"/><path class="b" d="M50.85,13.44l5.39,15.64,5.41-15.64h1.84V31.21H62.1v-7.7l.12-7.75L56.77,31.21H55.7L50.28,15.83l.12,7.63v7.75H49V13.44Z"/><path class="b" d="M73.32,31.21V13.44h4.5a5.06,5.06,0,0,1,3.64,1.18,4.54,4.54,0,0,1,1.24,3.47,4.43,4.43,0,0,1-.63,2.38,3.66,3.66,0,0,1-1.76,1.46,3.5,3.5,0,0,1,2.09,1.51,4.74,4.74,0,0,1,.8,2.76,5.12,5.12,0,0,1-1.27,3.67,4.71,4.71,0,0,1-3.6,1.34Zm1.39-9.81h3.23a3.44,3.44,0,0,0,2.47-.84,3.36,3.36,0,0,0,.88-2.51,3.25,3.25,0,0,0-.86-2.49,3.71,3.71,0,0,0-2.61-.8H74.71Zm0,1.27v7.25h3.68a3.28,3.28,0,0,0,2.51-1,3.81,3.81,0,0,0,.91-2.71A3.69,3.69,0,0,0,81,23.66a3.06,3.06,0,0,0-2.36-1Z"/><path class="b" d="M92.24,23.82H88.09v7.39H86.68V13.44h4.87a5,5,0,0,1,3.77,1.38,5.35,5.35,0,0,1,1.34,3.86,5.54,5.54,0,0,1-.83,3,4.4,4.4,0,0,1-2.24,1.8l3.7,7.55v.16H95.8Zm-4.15-1.3H91.8a3.16,3.16,0,0,0,2.51-1.08,4,4,0,0,0,.94-2.76,4.05,4.05,0,0,0-1-2.9,3.64,3.64,0,0,0-2.74-1H88.09Z"/><path class="b" d="M108.74,22.7h-6.9v7.22h7.94v1.29h-9.33V13.44h9.27v1.32h-7.88v6.65h6.9Z"/><path class="b" d="M117.49,29l0,.2,0-.2,4.64-15.55h1.54L118.2,31.21h-1.32l-5.55-17.77h1.52Z"/><path class="b" d="M134.68,22.7h-6.9v7.22h7.94v1.29h-9.33V13.44h9.27v1.32h-7.88v6.65h6.9Z"/></svg>