<svg xmlns="http://www.w3.org/2000/svg" viewBox="0 0 7.52 7.35"><defs><style>.a{fill:#1d1d1b;}.b{fill:#fff;stroke:#d4e5b9;stroke-miterlimit:10;stroke-width:0.05px;}.c{font-size:1.28px;fill:#e2f1f1;}.c,.f{font-family:PTSans-Regular, PT Sans;}.d{letter-spacing:-0.03em;}.e{letter-spacing:-0.04em;}.f{font-size:0.6px;fill:#ebf0c8;}.g{letter-spacing:-0.03em;}</style></defs><title>iconAtivo 3meganf</title><ellipse class="a" cx="3.76" cy="3.68" rx="3.76" ry="3.68"/><path class="b" d="M3.39,2a3,3,0,0,0,.52,1.09.55.55,0,0,1,0-.32A8.06,8.06,0,0,1,4.43,2a.8.8,0,0,0,.12-.78A.78.78,0,0,0,3.91.92C3.39.92,3.29,1.41,3.39,2Z"/><path class="b" d="M2.29,2.64a3,3,0,0,0,1.19.26.62.62,0,0,1-.23-.24,6,6,0,0,1-.32-.84c-.14-.33-.32-.54-.55-.57a.75.75,0,0,0-.64.31C1.42,2,1.75,2.35,2.29,2.64Z"/><path class="b" d="M5.32,2.64a3,3,0,0,1-1.19.26.62.62,0,0,0,.23-.24,7.65,7.65,0,0,0,.32-.84c.13-.33.32-.54.54-.57a.77.77,0,0,1,.65.31C6.19,2,5.86,2.35,5.32,2.64Z"/><text class="c" transform="translate(0.51 4.37)">VE<tspan class="d" x="1.42" y="0">RÃ</tspan><tspan x="2.86" y="0">OSHO</tspan><tspan class="e" x="6.16" y="0">P</tspan></text><text class="f" transform="translate(2.55 5.44)">BE HAP<tspan class="g" x="1.94" y="0">PY</tspan></text></svg>