<svg xmlns="http://www.w3.org/2000/svg" xmlns:xlink="http://www.w3.org/1999/xlink" viewBox="0 0 4.07 3.36"><defs><style>.a,.c,.e{stroke-miterlimit:10;stroke-width:0.05px;}.a{fill:url(#a);stroke:url(#b);}.b{fill:url(#c);}.c,.e{fill:none;}.c{stroke:url(#d);}.d{fill:url(#e);}.e{stroke:url(#f);}.f{font-size:1.14px;fill:#ff8a35;font-family:PTSans-Regular, PT Sans;}.g{letter-spacing:-0.03em;}.h{letter-spacing:-0.04em;}</style><linearGradient id="a" x1="1.58" y1="1" x2="2.32" y2="1" gradientUnits="userSpaceOnUse"><stop offset="0" stop-color="#07b2ef"/><stop offset="1" stop-color="#8edaf6"/></linearGradient><linearGradient id="b" x1="1.55" y1="1" x2="2.35" y2="1" gradientUnits="userSpaceOnUse"><stop offset="0" stop-color="#3da6ed"/><stop offset="1" stop-color="#41a4d1"/></linearGradient><linearGradient id="c" x1="-37.29" y1="546.46" x2="-36.47" y2="546.46" gradientTransform="matrix(0.63, -0.54, 0.44, 0.52, -218.27, -303.2)" xlink:href="#a"/><linearGradient id="d" x1="-37.31" y1="546.46" x2="-36.44" y2="546.46" gradientTransform="matrix(0.63, -0.54, 0.44, 0.52, -218.27, -303.2)" xlink:href="#b"/><linearGradient id="e" x1="-1077.03" y1="-814.03" x2="-1076.11" y2="-814.03" gradientTransform="matrix(-0.44, -0.7, -0.58, 0.36, -940.53, -459.99)" xlink:href="#a"/><linearGradient id="f" x1="-1077.05" y1="-814.03" x2="-1076.08" y2="-814.03" gradientTransform="matrix(-0.44, -0.7, -0.58, 0.36, -940.53, -459.99)" xlink:href="#b"/></defs><title>Favicon Veraoshop Verão Shop Online</title><path class="a" d="M1.6,1a3.2,3.2,0,0,0,.31,1,.51.51,0,0,1,0-.28A5.89,5.89,0,0,1,2.22,1,1,1,0,0,0,2.28.31.42.42,0,0,0,1.91,0C1.6,0,1.54.46,1.6,1Z"/><path class="b" d="M1,1.58a3.35,3.35,0,0,1,.39.22c.08.05.07.08.08.07s0-.09,0-.28a1.78,1.78,0,0,0-.1-.52.52.52,0,0,0-.2-.25.51.51,0,0,0-.27,0,.42.42,0,0,0-.16.37A.48.48,0,0,0,1,1.58Z"/><path class="c" d="M1,1.58a3.35,3.35,0,0,1,.39.22c.08.05.07.08.08.07s0-.09,0-.28a1.78,1.78,0,0,0-.1-.52.52.52,0,0,0-.2-.25.51.51,0,0,0-.27,0,.42.42,0,0,0-.16.37A.48.48,0,0,0,1,1.58Z"/><path class="d" d="M2.79,1.77a2.05,2.05,0,0,0-.42,0c-.08,0-.08.05-.09,0s0-.09.07-.27a1.29,1.29,0,0,1,.21-.44A.34.34,0,0,1,2.79,1a.45.45,0,0,1,.27.1.52.52,0,0,1,.08.42A.36.36,0,0,1,2.79,1.77Z"/><path class="e" d="M2.79,1.77a2.05,2.05,0,0,0-.42,0c-.08,0-.08.05-.09,0s0-.09.07-.27a1.29,1.29,0,0,1,.21-.44A.34.34,0,0,1,2.79,1a.45.45,0,0,1,.27.1.52.52,0,0,1,.08.42A.36.36,0,0,1,2.79,1.77Z"/><text class="f" transform="translate(0 3.08) scale(0.67 1)">VE<tspan class="g" x="1.26" y="0">RÃ</tspan><tspan x="2.54" y="0">OSHO</tspan><tspan class="h" x="5.47" y="0">P</tspan></text></svg>