<?xml version="1.0" standalone="no"?>
<!DOCTYPE svg PUBLIC "-//W3C//DTD SVG 20010904//EN"
 "http://www.w3.org/TR/2001/REC-SVG-20010904/DTD/svg10.dtd">
<svg version="1.0" xmlns="http://www.w3.org/2000/svg"
 width="891.000000pt" height="336.000000pt" viewBox="0 0 891.000000 336.000000"
 preserveAspectRatio="xMidYMid meet">
<metadata>
Created by potrace 1.16, written by Peter Selinger 2001-2019
</metadata>
<g transform="translate(0.000000,336.000000) scale(0.100000,-0.100000)"
fill="#000000" stroke="none">
<path d="M220 2898 c-56 -69 -124 -213 -146 -313 -22 -95 -24 -270 -5 -360 41
-194 138 -414 272 -615 l73 -110 179 0 179 0 -16 23 c-268 372 -378 676 -333
922 30 163 100 283 207 356 131 90 341 120 495 72 169 -53 319 -207 395 -405
88 -228 129 -496 96 -623 -29 -112 11 -90 85 46 53 100 89 133 133 123 61 -13
112 -48 196 -133 59 -59 97 -109 124 -159 21 -40 45 -76 53 -79 20 -8 34 16
28 47 -12 51 -95 208 -154 290 -66 90 -72 116 -29 113 29 -2 163 -89 273 -177
71 -57 95 -68 95 -41 0 53 -102 165 -247 273 -46 33 -63 52 -63 69 0 18 6 23
24 23 30 0 143 -40 244 -86 85 -39 102 -41 102 -16 0 33 -43 61 -211 138 -90
42 -169 80 -176 86 -29 24 -14 48 50 78 34 17 67 30 73 30 6 0 17 6 23 14 21
25 -21 38 -95 31 -158 -17 -220 13 -436 210 -78 72 -169 151 -202 177 l-61 48
-591 0 -590 0 -44 -52z"/>
<path d="M2954 2925 c212 -87 329 -305 329 -615 0 -233 -76 -468 -231 -718
-29 -46 -52 -85 -52 -88 0 -2 64 -4 143 -4 l144 0 62 109 c232 406 277 773
131 1076 -44 91 -125 187 -198 234 l-49 31 -169 0 -169 0 59 -25z"/>
<path d="M1914 1755 c-8 -20 29 -135 64 -200 27 -49 28 -50 80 -53 l53 -3 -46
48 c-27 27 -64 84 -87 130 -43 89 -55 103 -64 78z"/>
</g>
</svg>
