<?xml version="1.0" standalone="no"?>
<!DOCTYPE svg PUBLIC "-//W3C//DTD SVG 20010904//EN"
 "http://www.w3.org/TR/2001/REC-SVG-20010904/DTD/svg10.dtd">
<svg version="1.0" xmlns="http://www.w3.org/2000/svg"
 width="370.000000pt" height="109.000000pt" viewBox="0 0 370.000000 109.000000"
 preserveAspectRatio="xMidYMid meet">

<g transform="translate(0.000000,109.000000) scale(0.100000,-0.100000)"
fill="#000000" stroke="none">
<path d="M2765 1039 c-141 -75 -209 -206 -185 -356 9 -53 7 -62 -24 -132 -19
-42 -41 -96 -49 -121 -38 -115 -66 -315 -53 -384 6 -31 11 -36 35 -36 l28 0 0
122 c-1 148 21 279 65 390 l31 79 51 -8 c145 -23 243 6 331 99 l50 52 -53 -48
c-58 -52 -113 -80 -180 -91 -53 -9 -144 2 -167 19 -16 12 -15 14 9 41 26 27
30 38 27 63 -1 8 15 12 51 13 51 1 52 1 19 11 l-34 9 34 36 c26 27 29 34 14
29 -20 -6 -20 -6 -1 9 11 8 34 15 50 15 24 0 27 3 16 10 -12 8 -9 15 20 43 19
19 44 39 55 45 11 6 15 12 9 12 -21 0 -130 -77 -182 -131 -30 -30 -70 -81 -90
-113 l-37 -60 -9 48 c-6 35 -4 65 7 111 25 102 77 166 181 222 23 12 36 22 31
23 -6 0 -28 -10 -50 -21z"/>
<path d="M0 345 l0 -335 40 0 40 0 2 268 3 269 161 -266 c160 -265 161 -266
198 -269 l36 -3 0 335 0 336 -35 0 -35 0 -2 -277 -3 -277 -165 277 -164 277
-38 0 -38 0 0 -335z"/>
<path d="M2313 661 c-50 -23 -72 -62 -80 -137 -6 -51 -7 -54 -34 -54 -26 0
-29 -4 -29 -30 0 -27 3 -30 30 -30 l30 0 0 -200 0 -200 35 0 35 0 0 200 0 200
50 0 c49 0 50 1 50 30 0 29 -1 30 -50 30 l-50 0 0 55 c0 71 24 99 78 93 21 -3
44 -8 53 -12 18 -8 46 41 31 56 -19 19 -106 19 -149 -1z"/>
<path d="M1120 525 l0 -55 -35 0 c-32 0 -35 -2 -35 -30 0 -28 3 -30 35 -30
l35 0 0 -167 c0 -114 4 -176 13 -193 17 -34 75 -54 132 -45 43 6 46 8 43 33
-3 25 -6 26 -51 23 -46 -2 -48 -1 -62 33 -11 26 -15 74 -15 176 l0 140 55 0
c54 0 55 0 55 30 0 30 -1 30 -55 30 l-55 0 0 55 c0 54 0 55 -30 55 -30 0 -30
-1 -30 -55z"/>
<path d="M724 471 c-34 -9 -114 -51 -114 -61 0 -3 6 -15 14 -25 13 -18 15 -17
67 8 104 52 179 28 179 -57 l0 -43 -64 -7 c-146 -15 -226 -75 -226 -168 0
-113 140 -153 257 -73 l37 25 12 -30 c15 -34 50 -46 91 -33 37 13 45 53 11 53
-44 0 -48 15 -48 167 0 164 -10 202 -60 228 -37 19 -113 27 -156 16z m146
-290 c0 -69 0 -69 -37 -92 -21 -13 -58 -24 -88 -27 -44 -4 -56 -1 -74 17 -66
66 28 169 157 171 l42 0 0 -69z"/>
<path d="M2065 468 c-16 -6 -47 -23 -67 -39 l-37 -29 -3 33 c-3 28 -7 32 -35
35 l-33 3 0 -230 0 -231 35 0 35 0 0 161 c0 91 4 169 10 180 15 28 83 59 128
59 36 0 40 3 44 30 3 17 2 32 0 35 -8 8 -44 4 -77 -7z"/>
<path d="M3216 470 c-16 -5 -44 -24 -63 -42 -94 -91 -79 -325 26 -395 72 -48
190 -38 258 23 l38 34 -24 20 -24 21 -26 -24 c-38 -36 -65 -47 -110 -47 -68 0
-131 72 -131 150 l0 30 155 0 156 0 -7 53 c-8 71 -42 138 -81 160 -38 21 -125
30 -167 17z m126 -61 c19 -10 57 -81 58 -106 0 -10 -31 -13 -120 -13 -103 0
-120 2 -120 16 0 30 33 85 59 99 31 17 94 19 123 4z"/>
<path d="M1400 283 c0 -171 2 -191 20 -221 39 -64 126 -77 225 -33 44 19 44
19 50 0 4 -13 16 -19 36 -19 l29 0 0 230 0 230 -35 0 -35 0 0 -185 0 -186 -42
-19 c-64 -29 -128 -26 -159 6 -23 25 -24 31 -27 205 l-4 179 -29 0 -29 0 0
-187z"/>
<path d="M2701 298 c108 -311 97 -288 133 -288 l31 0 78 224 c42 123 77 226
77 230 0 3 -15 6 -33 6 l-33 0 -59 -197 c-32 -108 -61 -190 -64 -182 -2 8 -30
95 -61 194 l-57 180 -36 3 -36 3 60 -173z"/>
</g>
</svg>
