<svg xmlns="http://www.w3.org/2000/svg" xmlns:xlink="http://www.w3.org/1999/xlink" viewBox="0 0 53.7 10.74"><defs><style>.a{isolation:isolate;}.b{opacity:0.82;mix-blend-mode:multiply;}.c{fill:#1d1d1b;stroke:#1d1d1b;}.c,.d,.e,.f,.g,.h,.i,.j,.k,.l{stroke-miterlimit:10;stroke-width:0.25px;}.d,.e,.f,.g,.h,.i,.j,.k,.l{stroke:#e94e1b;}.d{fill:url(#a);}.e{fill:url(#b);}.f{fill:url(#c);}.g{fill:url(#d);}.h{fill:url(#e);}.i{fill:url(#f);}.j{fill:url(#g);}.k{fill:url(#h);}.l{fill:url(#i);}</style><radialGradient id="a" cx="3.3" cy="6.28" r="3.72" gradientUnits="userSpaceOnUse"><stop offset="0" stop-color="#dedc00"/><stop offset="1" stop-color="#f39200"/></radialGradient><radialGradient id="b" cx="8.99" cy="6.25" r="3.33" xlink:href="#a"/><radialGradient id="c" cx="14.71" cy="6.19" r="3.56" xlink:href="#a"/><radialGradient id="d" cx="20.14" cy="5.29" r="4.23" xlink:href="#a"/><radialGradient id="e" cx="26.15" cy="6.25" r="3.73" xlink:href="#a"/><radialGradient id="f" cx="32.08" cy="6.25" r="3.52" xlink:href="#a"/><radialGradient id="g" cx="37.94" cy="6.25" r="3.51" xlink:href="#a"/><radialGradient id="h" cx="44.45" cy="6.25" r="3.73" xlink:href="#a"/><radialGradient id="i" cx="50.8" cy="6.19" r="3.49" xlink:href="#a"/></defs><title>logo-veraoshop-veraoshop-logo-veraoshop-online</title><g class="a"><g class="b"><path class="c" d="M3.5,7l.17,1.44h.05L3.91,7,5.14,2.05H6.73L4.19,10.51H3L.47,2.05H2.26Z"/><path class="c" d="M7.16,2.05h4.21V3.44H8.68V5.5h2.43V6.89H8.68V9.05h2.73v1.4H7.16Z"/><path class="c" d="M12.32,2.13A10.31,10.31,0,0,1,13.38,2c.38,0,.7,0,1,0a4.81,4.81,0,0,1,1,.1,2.27,2.27,0,0,1,.87.37,1.91,1.91,0,0,1,.61.73,2.54,2.54,0,0,1,.24,1.17A3.24,3.24,0,0,1,16.7,6a2,2,0,0,1-1,.89l.48.38,1.55,3.22H16L14.48,7.13,13.84,7v3.47H12.32ZM13.84,6h.51a1,1,0,0,0,.85-.35,1.56,1.56,0,0,0,.29-1.06,1.5,1.5,0,0,0-.24-.88.85.85,0,0,0-.75-.34h-.38a.94.94,0,0,0-.28,0Z"/><path class="c" d="M21.37,8.53h-2l-.49,1.92H17.4L19.84,2H21l2.45,8.46H21.89ZM18.42.89a2.23,2.23,0,0,1,.67-.6,1.41,1.41,0,0,1,.64-.16,1.74,1.74,0,0,1,.45.06l.45.14L21,.47a1.32,1.32,0,0,0,.39.06,1,1,0,0,0,.33-.06.9.9,0,0,0,.3-.24l.32.76a1.92,1.92,0,0,1-.59.47,1.3,1.3,0,0,1-.56.13,1.41,1.41,0,0,1-.45-.07l-.43-.13-.42-.14a1.14,1.14,0,0,0-.41-.07.92.92,0,0,0-.39.09,1.1,1.1,0,0,0-.4.32Zm1.3,6.41h1.39l-.48-1.95L20.44,4h-.05l-.21,1.33Z"/><path class="c" d="M23.48,6.25A6,6,0,0,1,24.22,3a2.48,2.48,0,0,1,2.23-1.11,2.79,2.79,0,0,1,1.34.3,2.53,2.53,0,0,1,.93.88,4.32,4.32,0,0,1,.53,1.38,8.37,8.37,0,0,1,.17,1.81,5.85,5.85,0,0,1-.75,3.25,2.51,2.51,0,0,1-2.22,1.11,2.81,2.81,0,0,1-1.35-.3,2.58,2.58,0,0,1-.92-.88,4.1,4.1,0,0,1-.53-1.38A9,9,0,0,1,23.48,6.25Zm1.59,0a8.81,8.81,0,0,0,.07,1.18,3.79,3.79,0,0,0,.24.94,1.6,1.6,0,0,0,.43.62.88.88,0,0,0,.64.23,1.1,1.1,0,0,0,1-.71,5.44,5.44,0,0,0,.35-2.26,8.51,8.51,0,0,0-.07-1.16,3.87,3.87,0,0,0-.24-1,1.66,1.66,0,0,0-.42-.64,1,1,0,0,0-.66-.23C25.53,3.27,25.07,4.26,25.07,6.25Z"/><path class="c" d="M33.25,8.29A1,1,0,0,0,33,7.63a2.86,2.86,0,0,0-.57-.51c-.22-.16-.47-.32-.74-.49A3.84,3.84,0,0,1,31,6a2.85,2.85,0,0,1-.57-.79,2.38,2.38,0,0,1-.23-1.12,2.64,2.64,0,0,1,.18-1,2,2,0,0,1,.51-.7,2.26,2.26,0,0,1,.77-.4,3.64,3.64,0,0,1,.95-.12A5.11,5.11,0,0,1,33.72,2a3.45,3.45,0,0,1,.88.32l-.47,1.33a2.41,2.41,0,0,0-.61-.26,3,3,0,0,0-.87-.12,1.16,1.16,0,0,0-.72.19.67.67,0,0,0-.25.57.88.88,0,0,0,.23.59,3.18,3.18,0,0,0,.57.5l.74.5a4.29,4.29,0,0,1,.75.6,3.2,3.2,0,0,1,.57.8,2.48,2.48,0,0,1,.22,1.1,3.06,3.06,0,0,1-.18,1.1,2.16,2.16,0,0,1-.53.78,2.43,2.43,0,0,1-.82.46,3.59,3.59,0,0,1-1.07.15,5,5,0,0,1-1.3-.14,3.56,3.56,0,0,1-.86-.32l.49-1.36a3.55,3.55,0,0,0,.66.29,2.93,2.93,0,0,0,.9.14Q33.25,9.22,33.25,8.29Z"/><path class="c" d="M39.38,6.89H37.09v3.56H35.58V2.05h1.51V5.5h2.29V2.05H40.9v8.4H39.38Z"/><path class="c" d="M41.78,6.25A6,6,0,0,1,42.52,3a2.48,2.48,0,0,1,2.23-1.11,2.79,2.79,0,0,1,1.34.3,2.53,2.53,0,0,1,.93.88,4.32,4.32,0,0,1,.53,1.38,8.37,8.37,0,0,1,.17,1.81A5.85,5.85,0,0,1,47,9.5a2.51,2.51,0,0,1-2.22,1.11,2.81,2.81,0,0,1-1.35-.3,2.58,2.58,0,0,1-.92-.88A4.1,4.1,0,0,1,42,8.05,9,9,0,0,1,41.78,6.25Zm1.59,0a8.81,8.81,0,0,0,.07,1.18,3.79,3.79,0,0,0,.24.94,1.6,1.6,0,0,0,.43.62.88.88,0,0,0,.64.23,1.1,1.1,0,0,0,1-.71,5.44,5.44,0,0,0,.35-2.26,8.51,8.51,0,0,0-.07-1.16,3.87,3.87,0,0,0-.24-1,1.66,1.66,0,0,0-.42-.64,1,1,0,0,0-.66-.23C43.83,3.27,43.37,4.26,43.37,6.25Z"/><path class="c" d="M48.61,2.13c.29-.06.61-.11,1-.15a8.88,8.88,0,0,1,1-.05,5.67,5.67,0,0,1,1.09.1,2.44,2.44,0,0,1,1,.4,2.19,2.19,0,0,1,.69.85,3.33,3.33,0,0,1,.26,1.42A3.55,3.55,0,0,1,53.36,6a2.45,2.45,0,0,1-.6.9,2.3,2.3,0,0,1-.85.51,3.43,3.43,0,0,1-1,.15h-.38l-.23,0-.17,0v2.9H48.61ZM50.12,6.2l.27,0,.27,0a2.09,2.09,0,0,0,.51-.07,1,1,0,0,0,.42-.25,1.16,1.16,0,0,0,.3-.48A2.37,2.37,0,0,0,52,4.69,1.94,1.94,0,0,0,51.89,4a1,1,0,0,0-.27-.43,1.1,1.1,0,0,0-.4-.24,1.59,1.59,0,0,0-.48-.07,2.65,2.65,0,0,0-.62.06Z"/></g><path class="d" d="M3.2,7l.17,1.44h0L3.61,7,4.84,2.05H6.43L3.89,10.51H2.74L.17,2.05H2Z"/><path class="e" d="M6.86,2.05h4.21V3.44H8.38V5.5h2.43V6.89H8.38V9.05h2.73v1.4H6.86Z"/><path class="f" d="M12,2.13A10.31,10.31,0,0,1,13.08,2c.38,0,.7,0,1,0a4.81,4.81,0,0,1,1,.1,2.27,2.27,0,0,1,.87.37,1.91,1.91,0,0,1,.61.73,2.54,2.54,0,0,1,.24,1.17A3.24,3.24,0,0,1,16.4,6a2,2,0,0,1-1,.89l.48.38,1.55,3.22H15.65L14.18,7.13,13.54,7v3.47H12ZM13.54,6h.51a1,1,0,0,0,.85-.35,1.56,1.56,0,0,0,.29-1.06A1.5,1.5,0,0,0,15,3.66a.85.85,0,0,0-.75-.34h-.38a.94.94,0,0,0-.28,0Z"/><path class="g" d="M21.07,8.53h-2l-.49,1.92H17.1L19.54,2h1.18l2.45,8.46H21.59ZM18.12.89a2.23,2.23,0,0,1,.67-.6,1.41,1.41,0,0,1,.64-.16,1.74,1.74,0,0,1,.45.06l.45.14.41.14a1.32,1.32,0,0,0,.39.06,1,1,0,0,0,.33-.06.9.9,0,0,0,.3-.24l.32.76a1.92,1.92,0,0,1-.59.47,1.3,1.3,0,0,1-.56.13,1.41,1.41,0,0,1-.45-.07l-.43-.13-.42-.14a1.14,1.14,0,0,0-.41-.07.92.92,0,0,0-.39.09,1.1,1.1,0,0,0-.4.32Zm1.3,6.41h1.39l-.48-1.95L20.14,4h-.05l-.21,1.33Z"/><path class="h" d="M23.18,6.25A6,6,0,0,1,23.92,3a2.48,2.48,0,0,1,2.23-1.11,2.79,2.79,0,0,1,1.34.3,2.53,2.53,0,0,1,.93.88A4.32,4.32,0,0,1,29,4.44a8.37,8.37,0,0,1,.17,1.81,5.85,5.85,0,0,1-.75,3.25,2.51,2.51,0,0,1-2.22,1.11,2.81,2.81,0,0,1-1.35-.3,2.58,2.58,0,0,1-.92-.88,4.1,4.1,0,0,1-.53-1.38A9,9,0,0,1,23.18,6.25Zm1.59,0a8.81,8.81,0,0,0,.07,1.18,3.79,3.79,0,0,0,.24.94,1.6,1.6,0,0,0,.43.62.88.88,0,0,0,.64.23,1.1,1.1,0,0,0,1-.71,5.44,5.44,0,0,0,.35-2.26,8.51,8.51,0,0,0-.07-1.16,3.87,3.87,0,0,0-.24-1,1.66,1.66,0,0,0-.42-.64,1,1,0,0,0-.66-.23C25.23,3.27,24.77,4.26,24.77,6.25Z"/><path class="i" d="M33,8.29a1,1,0,0,0-.23-.66,2.86,2.86,0,0,0-.57-.51c-.22-.16-.47-.32-.74-.49A3.84,3.84,0,0,1,30.67,6a2.85,2.85,0,0,1-.57-.79,2.38,2.38,0,0,1-.23-1.12,2.64,2.64,0,0,1,.18-1,2,2,0,0,1,.51-.7,2.26,2.26,0,0,1,.77-.4,3.64,3.64,0,0,1,1-.12A5.11,5.11,0,0,1,33.42,2a3.45,3.45,0,0,1,.88.32l-.47,1.33a2.41,2.41,0,0,0-.61-.26,3,3,0,0,0-.87-.12,1.16,1.16,0,0,0-.72.19.67.67,0,0,0-.25.57.88.88,0,0,0,.23.59,3.18,3.18,0,0,0,.57.5l.74.5a4.29,4.29,0,0,1,.75.6,3.2,3.2,0,0,1,.57.8,2.48,2.48,0,0,1,.22,1.1,3.06,3.06,0,0,1-.18,1.1,2.16,2.16,0,0,1-.53.78,2.43,2.43,0,0,1-.82.46,3.59,3.59,0,0,1-1.07.15,5,5,0,0,1-1.3-.14,3.56,3.56,0,0,1-.86-.32l.49-1.36a3.55,3.55,0,0,0,.66.29,2.93,2.93,0,0,0,.9.14Q32.95,9.22,33,8.29Z"/><path class="j" d="M39.08,6.89H36.79v3.56H35.28V2.05h1.51V5.5h2.29V2.05H40.6v8.4H39.08Z"/><path class="k" d="M41.48,6.25A6,6,0,0,1,42.22,3a2.48,2.48,0,0,1,2.23-1.11,2.79,2.79,0,0,1,1.34.3,2.53,2.53,0,0,1,.93.88,4.32,4.32,0,0,1,.53,1.38,8.37,8.37,0,0,1,.17,1.81,5.85,5.85,0,0,1-.75,3.25,2.51,2.51,0,0,1-2.22,1.11,2.81,2.81,0,0,1-1.35-.3,2.58,2.58,0,0,1-.92-.88,4.1,4.1,0,0,1-.53-1.38A9,9,0,0,1,41.48,6.25Zm1.59,0a8.81,8.81,0,0,0,.07,1.18,3.79,3.79,0,0,0,.24.94,1.6,1.6,0,0,0,.43.62.88.88,0,0,0,.64.23,1.1,1.1,0,0,0,1-.71,5.44,5.44,0,0,0,.35-2.26,8.51,8.51,0,0,0-.07-1.16,3.87,3.87,0,0,0-.24-1,1.66,1.66,0,0,0-.42-.64,1,1,0,0,0-.66-.23C43.53,3.27,43.07,4.26,43.07,6.25Z"/><path class="l" d="M48.31,2.13c.29-.06.61-.11.95-.15a8.88,8.88,0,0,1,1-.05,5.67,5.67,0,0,1,1.09.1,2.44,2.44,0,0,1,.95.4,2.19,2.19,0,0,1,.69.85,3.33,3.33,0,0,1,.26,1.42A3.55,3.55,0,0,1,53.06,6a2.45,2.45,0,0,1-.6.9,2.3,2.3,0,0,1-.85.51,3.43,3.43,0,0,1-1,.15h-.38l-.23,0-.17,0v2.9H48.31ZM49.82,6.2l.27,0,.27,0a2.09,2.09,0,0,0,.51-.07,1,1,0,0,0,.42-.25,1.16,1.16,0,0,0,.3-.48,2.37,2.37,0,0,0,.11-.77A1.94,1.94,0,0,0,51.59,4a1,1,0,0,0-.27-.43,1.1,1.1,0,0,0-.4-.24,1.59,1.59,0,0,0-.48-.07,2.65,2.65,0,0,0-.62.06Z"/></g></svg>