<svg xmlns="http://www.w3.org/2000/svg" xmlns:xlink="http://www.w3.org/1999/xlink" viewBox="0 0 80.46 24.37"><defs><style>.a{font-size:20px;font-family:Roboto-Light, Roboto;font-weight:300;letter-spacing:0em;}.b{letter-spacing:0.01em;}.c{letter-spacing:0em;}.d{stroke:#000;stroke-miterlimit:10;}.e{fill:url(#a);}.f{fill:none;}</style><linearGradient id="a" x1="591.61" y1="-345.44" x2="591.61" y2="-607.58" gradientTransform="matrix(-0.04, -0.02, -0.02, 0.04, 73.58, 32.8)" gradientUnits="userSpaceOnUse"><stop offset="0" stop-color="#32af00"/><stop offset="0.41" stop-color="#77c43b"/><stop offset="0.89" stop-color="#cddf85"/></linearGradient></defs><title>iconAtivo 1mega</title><path d="M57.61,19h1.22l0-.09C56.62,9.27,58.66,8,58.66,8l1.1-1.62s4.15,2.18.33-.7-2.56,13.07-2.56,13.07Z"/><text class="a" transform="translate(0 18.95)">Natu<tspan class="b" x="42.24" y="0">r</tspan><tspan class="c" x="49.1" y="0">f ve</tspan></text><path class="d" d="M58.38,8.44a.1.1,0,0,0,0,.05.91.91,0,0,0,1.15-.16c.4-.4,1.17-2,.19-2-.37,0-.64.33-.82.61A4.56,4.56,0,0,0,58.38,8.44Z"/><path class="e" d="M62.28,0a8.18,8.18,0,0,1,.89,2.75,5.29,5.29,0,0,1-1.23,4.11c-1.7,2-2.82,2.85-4,2.58A6.16,6.16,0,0,1,59.07,5.8a7.76,7.76,0,0,0-1.56,3.58C56.34,8.49,55,6.24,56.6,4.22c.89-1.17,2.65-2.06,3.81-2.84A13.3,13.3,0,0,0,62.28,0Z"/><path class="f" d="M62.49,0a8.08,8.08,0,0,1,.9,2.75,5.33,5.33,0,0,1-1.24,4.11c-1.7,2-2.82,2.85-4,2.58A6.24,6.24,0,0,1,59.28,5.8a6.74,6.74,0,0,0-1.7,3.46,3.5,3.5,0,0,1-.77-5c.9-1.17,2.65-2.06,3.82-2.84A12.76,12.76,0,0,0,62.49,0Z"/></svg>