<svg xmlns="http://www.w3.org/2000/svg" viewBox="0 0 228.8 92.04"><defs><style>.a{fill:#1fb200;stroke:#1fb200;}.a,.h{stroke-miterlimit:10;}.b{fill:#4a63ff;}.c{fill:#d44100;}.d{fill:#ff780a;}.e{fill:#0083e9;}.f{fill:#289f00;}.g{fill:#f41b00;}.h{fill:none;stroke:#e9ffea;stroke-width:8px;}</style></defs><title>iconAtivo 4megan</title><path class="a" d="M39.89.52,78.64,12.78C85.14,84,39.89,91.53,39.89,91.53S-5.36,84,1.14,12.78Z"/><path class="b" d="M108.39,46.61a10.43,10.43,0,0,1-4.83,3.88,18.88,18.88,0,0,1-7.22,1.28,13.58,13.58,0,0,1-7.4-2,13.41,13.41,0,0,1-5-5.8,20.76,20.76,0,0,1-1.82-8.73V32.1q0-8,3.6-12.46t10.1-4.43a12.58,12.58,0,0,1,8.59,2.85,12.61,12.61,0,0,1,4,8.08H103.9q-1.26-7.09-8.05-7.09A7.83,7.83,0,0,0,89,22.36q-2.32,3.32-2.35,9.6v2.91q0,6,2.62,9.53a8.37,8.37,0,0,0,7.09,3.54,15.09,15.09,0,0,0,4.43-.59,6.74,6.74,0,0,0,3.13-2v-8H96V33.57h12.35Z"/><path class="c" d="M114.06,37.82a16.28,16.28,0,0,1,1.46-7A11.24,11.24,0,0,1,119.59,26a10.7,10.7,0,0,1,6-1.69,10.49,10.49,0,0,1,8.37,3.74q3.2,3.73,3.19,10v.32a16.36,16.36,0,0,1-1.41,6.92,11.14,11.14,0,0,1-4,4.78,10.87,10.87,0,0,1-6.05,1.71A10.45,10.45,0,0,1,117.25,48q-3.19-3.73-3.19-9.89Zm4.35.54a11.63,11.63,0,0,0,2,7.06,6.45,6.45,0,0,0,10.47,0c1.3-1.8,1.94-4.32,1.94-7.56a11.7,11.7,0,0,0-2-7,6.2,6.2,0,0,0-5.26-2.7,6.11,6.11,0,0,0-5.17,2.66Q118.42,33.4,118.41,38.36Z"/><path class="d" d="M141.4,37.82a16.13,16.13,0,0,1,1.46-7A11.17,11.17,0,0,1,146.93,26a10.7,10.7,0,0,1,6-1.69,10.49,10.49,0,0,1,8.37,3.74q3.19,3.73,3.19,10v.32A16.36,16.36,0,0,1,163,45.28a11.14,11.14,0,0,1-4,4.78,10.89,10.89,0,0,1-6.05,1.71A10.43,10.43,0,0,1,144.59,48q-3.19-3.73-3.19-9.89Zm4.35.54a11.69,11.69,0,0,0,1.95,7.06,6.46,6.46,0,0,0,10.48,0q1.94-2.7,1.94-7.56a11.64,11.64,0,0,0-2-7,6.19,6.19,0,0,0-5.25-2.7,6.11,6.11,0,0,0-5.17,2.66Q145.76,33.4,145.75,38.36Z"/><path class="e" d="M168.85,37.84q0-6.18,2.74-9.83a9.19,9.19,0,0,1,14.49-.24l.21-2.93h4V50.65a11,11,0,0,1-2.92,8.09,10.49,10.49,0,0,1-7.83,2.95,12.51,12.51,0,0,1-5.36-1.22,9.25,9.25,0,0,1-4-3.35l2.25-2.71A8.32,8.32,0,0,0,179.2,58a6.52,6.52,0,0,0,4.93-1.85,7.34,7.34,0,0,0,1.76-5.23V48.64a8.7,8.7,0,0,1-7.09,3.13A8.53,8.53,0,0,1,171.6,48Q168.86,44.3,168.85,37.84Zm4.36.52a12.23,12.23,0,0,0,1.75,7,5.64,5.64,0,0,0,4.92,2.56,6.32,6.32,0,0,0,6-3.89V32a6.37,6.37,0,0,0-6-3.79A5.68,5.68,0,0,0,175,30.76Q173.21,33.32,173.21,38.36Z"/><path class="f" d="M201.48,51.28h-4.33V13.75h4.33Z"/><path class="g" d="M218.92,51.77a10.85,10.85,0,0,1-8.38-3.53q-3.22-3.52-3.23-9.44V38a16.43,16.43,0,0,1,1.44-7,11.59,11.59,0,0,1,4-4.84,9.89,9.89,0,0,1,5.61-1.75,9.31,9.31,0,0,1,7.68,3.4q2.73,3.39,2.74,9.73v1.88H211.64a9.6,9.6,0,0,0,2.19,6.31,6.72,6.72,0,0,0,5.32,2.41,7.23,7.23,0,0,0,3.89-1,9.74,9.74,0,0,0,2.78-2.59l2.65,2.15A10.51,10.51,0,0,1,218.92,51.77Zm-.54-23.7a5.66,5.66,0,0,0-4.4,2,9.88,9.88,0,0,0-2.2,5.58h12.68V35.3A8.81,8.81,0,0,0,222.69,30,5.34,5.34,0,0,0,218.38,28.07Z"/><path d="M105.61,71.44A10.42,10.42,0,0,1,102,70.08a2.4,2.4,0,0,1-1.12-2,2.58,2.58,0,0,1,1.37-2.22,6.51,6.51,0,0,1,3.57-.88,7.4,7.4,0,0,1,2.67.45,4.19,4.19,0,0,1,1.82,1.25,2.71,2.71,0,0,1,.65,1.74h-1.93a1.87,1.87,0,0,0-.84-1.62,4,4,0,0,0-2.37-.6,4.28,4.28,0,0,0-2.21.49,1.52,1.52,0,0,0-.79,1.36,1.38,1.38,0,0,0,.75,1.18,8.64,8.64,0,0,0,2.57.88A14.09,14.09,0,0,1,109,71a4,4,0,0,1,1.52,1.12,2.41,2.41,0,0,1,.5,1.51,2.5,2.5,0,0,1-1.38,2.21,7.05,7.05,0,0,1-3.69.84,8.52,8.52,0,0,1-2.8-.45,4.74,4.74,0,0,1-2-1.23,2.59,2.59,0,0,1-.7-1.78h1.93a1.83,1.83,0,0,0,1,1.63,4.93,4.93,0,0,0,2.6.6,4.52,4.52,0,0,0,2.33-.49,1.47,1.47,0,0,0,.81-1.32,1.45,1.45,0,0,0-.75-1.29A10.37,10.37,0,0,0,105.61,71.44Z"/><path d="M115.52,76.51H113.6V65.13h1.92Z"/><path d="M129.08,66.36H124.4V76.51h-1.91V66.36h-4.66V65.13h11.25Z"/><path d="M139.46,71.25h-6.31v4h7.33v1.23h-9.24V65.13h9.14v1.23h-7.23V70h6.31Z"/><path d="M152.21,71.44a10.42,10.42,0,0,1-3.59-1.36,2.4,2.4,0,0,1-1.12-2,2.58,2.58,0,0,1,1.37-2.22,6.51,6.51,0,0,1,3.57-.88,7.49,7.49,0,0,1,2.68.45,4.22,4.22,0,0,1,1.81,1.25,2.71,2.71,0,0,1,.65,1.74h-1.93a1.87,1.87,0,0,0-.84-1.62,4,4,0,0,0-2.37-.6,4.28,4.28,0,0,0-2.21.49,1.52,1.52,0,0,0-.79,1.36,1.38,1.38,0,0,0,.75,1.18,8.64,8.64,0,0,0,2.57.88,14.09,14.09,0,0,1,2.83.88,4,4,0,0,1,1.52,1.12,2.41,2.41,0,0,1,.5,1.51,2.5,2.5,0,0,1-1.38,2.21,7.05,7.05,0,0,1-3.69.84,8.41,8.41,0,0,1-2.79-.45,4.72,4.72,0,0,1-2-1.23,2.59,2.59,0,0,1-.7-1.78H149a1.83,1.83,0,0,0,1,1.63,4.93,4.93,0,0,0,2.6.6,4.52,4.52,0,0,0,2.33-.49,1.47,1.47,0,0,0,.81-1.32,1.45,1.45,0,0,0-.75-1.29A10.37,10.37,0,0,0,152.21,71.44Z"/><path d="M168.29,71.25H162v4h7.32v1.23h-9.24V65.13h9.14v1.23H162V70h6.31Z"/><path d="M182.43,75a4.52,4.52,0,0,1-2.06,1.24,10.54,10.54,0,0,1-3.08.41,7.23,7.23,0,0,1-3.16-.66A4.88,4.88,0,0,1,172,74.16a5.26,5.26,0,0,1-.78-2.79v-1a5.13,5.13,0,0,1,1.54-4A6.11,6.11,0,0,1,177.07,65a6.53,6.53,0,0,1,3.66.91,3.77,3.77,0,0,1,1.7,2.58h-1.92c-.36-1.51-1.5-2.27-3.43-2.27a3.86,3.86,0,0,0-2.93,1.06,4.39,4.39,0,0,0-1,3.07v.93a4.12,4.12,0,0,0,1.12,3,4.07,4.07,0,0,0,3,1.13,8.07,8.07,0,0,0,1.88-.19,3,3,0,0,0,1.34-.63V72.07h-3.36V70.85h5.27Z"/><path d="M195.87,65.13v7.74a3.24,3.24,0,0,1-1.3,2.63,6,6,0,0,1-3.48,1.15l-.51,0a6.43,6.43,0,0,1-3.8-1,3.26,3.26,0,0,1-1.44-2.78V65.13h1.9v7.71a2.31,2.31,0,0,0,.86,1.92,4.88,4.88,0,0,0,5,0,2.28,2.28,0,0,0,.87-1.91V65.13Z"/><path d="M204.23,71.91h-3.42v4.6h-1.93V65.13h4.82a6.86,6.86,0,0,1,3.78.88,2.86,2.86,0,0,1,1.32,2.55,2.64,2.64,0,0,1-.73,1.85,4.5,4.5,0,0,1-2,1.18l3.42,4.83v.09h-2.06Zm-3.42-1.23h2.95A3.92,3.92,0,0,0,206,70.1a1.78,1.78,0,0,0,.84-1.55,1.86,1.86,0,0,0-.8-1.62,4.15,4.15,0,0,0-2.32-.57h-2.94Z"/><path d="M222.68,71.19a5.75,5.75,0,0,1-.72,2.92,4.75,4.75,0,0,1-2,1.9,7.42,7.42,0,0,1-6.12,0,4.86,4.86,0,0,1-2.07-1.89,5.48,5.48,0,0,1-.75-2.83v-.82a5.65,5.65,0,0,1,.73-2.9,4.73,4.73,0,0,1,2.06-1.92,6.68,6.68,0,0,1,3-.67,6.89,6.89,0,0,1,3.09.66A4.79,4.79,0,0,1,222,67.55a5.77,5.77,0,0,1,.72,2.92Zm-1.91-.74a4.32,4.32,0,0,0-1-3.1,3.84,3.84,0,0,0-2.91-1.08A3.8,3.8,0,0,0,214,67.35a4.26,4.26,0,0,0-1.07,3v.84a4.32,4.32,0,0,0,1.05,3.08,4.38,4.38,0,0,0,5.78.06,4.27,4.27,0,0,0,1.05-3Z"/><polyline class="h" points="23.01 38.28 38.51 51.28 64.51 26.78"/></svg>