<svg xmlns="http://www.w3.org/2000/svg" xmlns:xlink="http://www.w3.org/1999/xlink" viewBox="0 0 310.74 303.86"><defs><style>.a{fill:url(#a);}.b,.d,.f{stroke-miterlimit:10;stroke-width:1.5px;}.b{fill:url(#b);stroke:url(#c);}.c{fill:url(#d);}.d,.f{fill:none;}.d{stroke:url(#e);}.e{fill:url(#f);}.f{stroke:url(#g);}.g{font-size:53px;fill:#ff8a35;}.g,.k{font-family:PTSans-Regular, PT Sans;}.h{letter-spacing:-0.03em;}.i{letter-spacing:-0.02em;}.j{letter-spacing:-0.04em;}.k{font-size:25px;}.l{letter-spacing:-0.02em;}</style><linearGradient id="a" x1="155.37" y1="303.86" x2="155.37" gradientUnits="userSpaceOnUse"><stop offset="0" stop-color="#fff"/><stop offset="0" stop-color="#5fa5e3"/><stop offset="1" stop-color="#e3effa"/></linearGradient><linearGradient id="b" x1="125.2" y1="81.17" x2="176.92" y2="81.17" gradientUnits="userSpaceOnUse"><stop offset="0" stop-color="#07b2ef"/><stop offset="1" stop-color="#8edaf6"/></linearGradient><linearGradient id="c" x1="124.45" y1="81.17" x2="177.67" y2="81.17" gradientUnits="userSpaceOnUse"><stop offset="0" stop-color="#3da6ed"/><stop offset="1" stop-color="#41a4d1"/></linearGradient><linearGradient id="d" x1="75.48" y1="70.51" x2="123.7" y2="70.51" gradientTransform="matrix(0.63, -0.54, 0.44, 0.52, 1.57, 114.45)" xlink:href="#b"/><linearGradient id="e" x1="74.73" y1="70.51" x2="124.45" y2="70.51" gradientTransform="matrix(0.63, -0.54, 0.44, 0.52, 1.57, 114.45)" xlink:href="#c"/><linearGradient id="f" x1="-96" y1="-95.45" x2="-47.78" y2="-95.45" gradientTransform="matrix(-0.44, -0.7, -0.58, 0.36, 116.02, 87.87)" xlink:href="#b"/><linearGradient id="g" x1="-96.75" y1="-95.45" x2="-47.03" y2="-95.45" gradientTransform="matrix(-0.44, -0.7, -0.58, 0.36, 116.02, 87.87)" xlink:href="#c"/></defs><title>iconAtivo 1mega</title><ellipse class="a" cx="155.37" cy="151.93" rx="155.37" ry="151.93"/><path class="b" d="M126.57,81.17c5.94,25,21.66,46,21.55,45.25.27-2.22-1.55-5.07,2.13-13.26,3.05-8.19,11.82-19.5,19.43-32,7.17-12.5,9.55-23.81,4.71-32-4.38-8.19-16-13.25-26.27-13.25C126.57,35.92,122.59,56.17,126.57,81.17Z"/><path class="c" d="M85.17,108.47c12.64,4.15,22.51,7.63,27.22,10.09,5.06,2.43,5,3.83,5.5,3.24.18-2.31.09-4.15-.48-13.26C116.52,100,113.66,90,110,84.41c-3.88-5.54-7.63-9.3-13.7-11.35-6-1.75-13.18-2.67-18.73-1.43-5.22.82-11.75,9.16-11.36,16.92C66.17,96.55,73.07,104,85.17,108.47Z"/><path class="d" d="M85.17,108.47c12.64,4.15,22.51,7.63,27.22,10.09,5.06,2.43,5,3.83,5.5,3.24.18-2.31.09-4.15-.48-13.26C116.52,100,113.66,90,110,84.41c-3.88-5.54-7.63-9.3-13.7-11.35-6-1.75-13.18-2.67-18.73-1.43-5.22.82-11.75,9.16-11.36,16.92C66.17,96.55,73.07,104,85.17,108.47Z"/><path class="e" d="M209.53,117.15c-13.3.11-23.76.43-29,1.33-5.55.78-5.89,2.15-6.22,1.42.53-2.25,1.17-4,4.49-12.49,3.44-7.89,9.21-16.55,14.41-20.72,5.37-4.11,10.09-6.54,16.5-6.65,6.25.16,13.36,1.46,18.28,4.33,4.72,2.37,8.41,12.29,5.68,19.57C231.25,111.57,222.42,116.56,209.53,117.15Z"/><path class="f" d="M209.53,117.15c-13.3.11-23.76.43-29,1.33-5.55.78-5.89,2.15-6.22,1.42.53-2.25,1.17-4,4.49-12.49,3.44-7.89,9.21-16.55,14.41-20.72,5.37-4.11,10.09-6.54,16.5-6.65,6.25.16,13.36,1.46,18.28,4.33,4.72,2.37,8.41,12.29,5.68,19.57C231.25,111.57,222.42,116.56,209.53,117.15Z"/><text class="g" transform="translate(15.79 177.91)">VE<tspan class="h" x="58.51" y="0">R</tspan><tspan class="i" x="88.67" y="0">Ã</tspan><tspan x="118.35" y="0">OSHO</tspan><tspan class="j" x="254.61" y="0">P</tspan></text><text class="k" transform="translate(96.07 215.7)">BE HAP<tspan class="l" x="80.07" y="0">PY</tspan></text></svg>